<svg width="36" height="22" viewBox="0 0 36 22" fill="none" xmlns="http://www.w3.org/2000/svg">
<path d="M22.3847 19.3474H12.9071V2.31544H22.3847V19.3474Z" fill="#FF5F00"/>
<path d="M13.509 10.8313C13.509 7.37618 15.127 4.29924 17.6461 2.3161C15.7389 0.811956 13.3805 -0.00291285 10.9534 7.82397e-06C4.97039 7.82397e-06 0.12207 4.84979 0.12207 10.8313C0.12207 16.8129 4.97039 21.6627 10.9519 21.6627C13.3805 21.6656 15.7389 20.8507 17.6446 19.3466C15.127 17.3634 13.509 14.2865 13.509 10.8313Z" fill="#EB001B"/>
<path d="M35.17 10.8313C35.17 16.8129 30.3217 21.6627 24.3402 21.6627C21.9116 21.6656 19.5532 20.8507 17.646 19.3466C20.1651 17.3634 21.7831 14.2865 21.7831 10.8313C21.7831 7.37618 20.1651 4.29924 17.646 2.3161C19.5532 0.811956 21.9116 -0.00291285 24.3402 7.82397e-06C30.3217 7.82397e-06 35.17 4.84979 35.17 10.8313Z" fill="#F79E1B"/>
</svg>
